<?xml version="1.0" encoding="UTF-8" standalone="no"?>
<svg
   xmlns:dc="http://purl.org/dc/elements/1.1/"
   xmlns:cc="http://creativecommons.org/ns#"
   xmlns:rdf="http://www.w3.org/1999/02/22-rdf-syntax-ns#"
   xmlns:svg="http://www.w3.org/2000/svg"
   xmlns="http://www.w3.org/2000/svg"
   xmlns:sodipodi="http://sodipodi.sourceforge.net/DTD/sodipodi-0.dtd"
   xmlns:inkscape="http://www.inkscape.org/namespaces/inkscape"
   version="1.1"
   width="273.37698"
   height="315.66855"
   id="svg29"
   sodipodi:docname="tgme.svg"
   inkscape:version="1.0.1 (3bc2e813f5, 2020-09-07)">
  <metadata
     id="metadata35">
    <rdf:RDF>
      <cc:Work
         rdf:about="">
        <dc:format>image/svg+xml</dc:format>
        <dc:type
           rdf:resource="http://purl.org/dc/dcmitype/StillImage" />
        <dc:title></dc:title>
      </cc:Work>
    </rdf:RDF>
  </metadata>
  <defs
     id="defs33">
	

		
			
		
		
		
	</defs>
  <sodipodi:namedview
     pagecolor="#ffffff"
     bordercolor="#666666"
     borderopacity="1"
     objecttolerance="10"
     gridtolerance="10"
     guidetolerance="10"
     inkscape:pageopacity="1"
     inkscape:pageshadow="2"
     inkscape:window-width="1920"
     inkscape:window-height="1000"
     id="namedview31"
     showgrid="false"
     inkscape:zoom="2.075"
     inkscape:cx="146.08031"
     inkscape:cy="162.80514"
     inkscape:window-x="-11"
     inkscape:window-y="-11"
     inkscape:window-maximized="1"
     inkscape:current-layer="svg29"
     inkscape:document-rotation="0"
     fit-margin-top="0"
     fit-margin-left="0"
     fit-margin-right="0"
     fit-margin-bottom="0" />
  <style
     type="text/css"
     id="style943">
	.st0{fill:#75AADB;}
	.st1{fill:#4D4D4D;}
	.st2{fill:#FFFFFF;}
	.st3{fill:url(#SVGID_1_);}
	.st4{fill:url(#SVGID_2_);}
	.st5{fill:url(#SVGID_3_);}
	.st6{fill:url(#SVGID_4_);}
	.st7{fill:url(#SVGID_5_);}
	.st8{fill:url(#SVGID_6_);}
	.st9{fill:url(#SVGID_7_);}
	.st10{fill:url(#SVGID_8_);}
	.st11{fill:url(#SVGID_9_);}
	.st12{fill:url(#SVGID_10_);}
	.st13{opacity:0.18;fill:url(#SVGID_11_);}
	.st14{opacity:0.3;}
</style>
  <g
     id="g1234"
     transform="translate(4.0892792,-7.8377991)">
    <path
       sodipodi:type="star"
       style="fill:#ffffff;stroke:#000000;stroke-width:1;stroke-miterlimit:10;stroke-dasharray:none;stroke-opacity:1"
       id="path37"
       sodipodi:sides="6"
       sodipodi:cx="132.59921"
       sodipodi:cy="165.67207"
       sodipodi:r1="157.25693"
       sodipodi:r2="136.18851"
       sodipodi:arg1="2.6179939"
       sodipodi:arg2="3.1415927"
       inkscape:flatsided="true"
       inkscape:rounded="0"
       inkscape:randomized="0"
       d="M -3.5892832,244.30053 -3.5892798,87.043607 132.59922,8.4151459 268.78771,87.043613 l 0,157.256927 -136.1885,78.62846 z" />
    <path
       id="path861"
       style="stroke-width:3.48926"
       d="m 234.95099,165.06768 c -1.89643,0.0787 -3.79512,-0.007 -5.6934,0.0226 -16.11997,0.005 -32.24077,-0.0157 -48.3602,0.0141 -0.76994,0.16826 -1.0256,1.05773 -1.3685,1.66632 -6.67209,13.02148 -13.42705,26.00161 -20.08421,39.03158 -0.37986,0.81698 -0.97103,1.57739 -0.96317,2.51822 -0.0789,1.49667 0.072,2.99559 -0.005,4.49303 0.0204,8.96701 -0.0451,17.93426 0.0388,26.90108 0.19053,0.82073 1.22861,0.99685 1.94004,0.85579 32.33826,-0.007 64.67651,0.0195 97.01475,-0.019 0.85439,-0.12294 1.09899,-1.16694 0.94415,-1.89207 -0.0378,-10.25514 0.0597,-20.51051 -0.0265,-30.76552 -0.48015,-1.70601 -1.58901,-3.13618 -2.28826,-4.74978 -6.48805,-12.55075 -12.91247,-25.13467 -19.44729,-37.66104 -0.41464,-0.4741 -1.13061,-0.40488 -1.70148,-0.41527 z m -52.38494,2.27074 c 17.51592,0 35.03185,0 52.54776,0 6.77855,13.14738 13.55568,26.29548 20.33574,39.44207 -10.33384,0.0248 -20.66789,-0.0457 -31.00155,0.0379 -0.83329,0.2433 -1.00985,1.26825 -0.93531,2.01831 -0.21026,5.28594 -3.40229,10.45383 -8.2655,12.66487 -5.82444,2.86841 -13.46887,1.62203 -17.91966,-3.1579 -2.09162,-2.22582 -3.36674,-5.13391 -3.79261,-8.14435 -0.1655,-0.903 -0.17282,-1.83179 -0.27595,-2.73558 -0.35856,-0.75032 -1.32489,-0.7742 -2.0406,-0.68195 -9.92524,0 -19.85046,0 -29.77568,0 6.77904,-13.14754 13.55735,-26.29545 20.33573,-39.44333 0.26254,0 0.52509,0 0.78763,0 z m 44.93023,41.64592 c 1.89219,0.0999 3.80037,0.0196 5.6992,0.0455 7.65743,0 15.31485,0 22.97228,0 0,9.76417 0,19.52834 0,29.2925 -31.81443,0 -63.62885,0 -95.44327,0 0,-9.76416 0,-19.52833 0,-29.2925 10.01871,0 20.03743,0 30.05613,0 0.77082,3.45413 1.7645,7.01164 4.07448,9.78352 4.01287,5.18958 11.16143,7.69589 17.53541,6.13051 6.38961,-1.43034 11.65152,-6.83131 13.00795,-13.22422 0.27646,-0.76163 0.22935,-1.71313 0.91511,-2.2758 0.30896,-0.29621 0.75666,-0.46245 1.18271,-0.45945 z" />
    <g
       id="telegram"
       transform="matrix(3.33335,0,0,3.33335,-2.564652,144.50973)"
       style="fill:#000000">
      <g
         id="g877"
         style="fill:#000000">
        <path
           d="m 24.687,30.163 c -0.402,0 -0.843,-0.132 -1.32,-0.395 L 12.564,21.792 c -0.121,-0.089 -0.195,-0.228 -0.203,-0.378 -0.007,-0.15 0.053,-0.295 0.165,-0.396 L 25.322,9.503 c 0.205,-0.185 0.521,-0.169 0.706,0.037 0.185,0.205 0.168,0.521 -0.037,0.706 l -12.34,11.106 10.254,7.576 c 0.271,0.145 0.729,0.329 1.055,0.178 0.332,-0.152 0.496,-0.637 0.576,-1.017 L 29.911,7.472 C 30.081,6.791 29.999,6.243 29.696,5.991 29.465,5.799 29.121,5.785 28.749,5.953 L 3.033,15.871 C 2.244,16.188 1.996,16.514 2,16.622 c 0.003,0.071 0.173,0.267 0.68,0.422 l 6.375,1.99 6.999,-4.416 c 0.234,-0.146 0.542,-0.077 0.689,0.156 0.147,0.233 0.078,0.542 -0.156,0.689 L 9.393,20.002 C 9.269,20.08 9.116,20.1 8.977,20.057 L 2.385,17.999 C 1.215,17.641 1.015,17.009 1.001,16.664 0.981,16.191 1.254,15.507 2.668,14.941 L 28.363,5.033 c 0.697,-0.318 1.445,-0.25 1.974,0.191 0.613,0.511 0.813,1.413 0.549,2.474 l -4.371,20.598 c -0.184,0.878 -0.566,1.457 -1.137,1.719 -0.215,0.099 -0.445,0.148 -0.691,0.148 z"
           fill="#263238"
           id="path875"
           style="fill:#000000" />
      </g>
      <path
         d="m 24.687,30.163 c -0.402,0 -0.843,-0.132 -1.32,-0.395 l -6.72,-4.959 c -0.222,-0.164 -0.27,-0.478 -0.105,-0.699 0.164,-0.222 0.478,-0.27 0.699,-0.105 l 6.664,4.923 c 0.271,0.145 0.729,0.329 1.055,0.178 0.332,-0.152 0.496,-0.637 0.576,-1.017 L 29.911,7.472 C 30.081,6.791 29.999,6.243 29.696,5.991 29.465,5.799 29.121,5.785 28.749,5.953 L 3.033,15.871 C 2.244,16.188 1.996,16.514 2,16.622 c 0.003,0.071 0.173,0.267 0.68,0.422 l 6.594,2.058 c 0.158,0.049 0.281,0.174 0.33,0.332 l 2.267,7.461 c 0.061,0.167 0.108,0.333 0.149,0.477 0.032,0.114 0.072,0.256 0.099,0.298 -0.004,-0.005 0.076,0.019 0.289,0.02 0.447,0 0.617,-0.167 0.957,-0.498 l 1.66,-1.614 c 0.198,-0.194 0.514,-0.188 0.707,0.01 0.192,0.198 0.188,0.515 -0.01,0.707 L 14.09,27.88 c -0.402,0.393 -0.828,0.809 -1.682,0.809 -0.98,0 -1.178,-0.434 -1.351,-1.046 -0.035,-0.124 -0.075,-0.267 -0.135,-0.432 L 8.724,19.978 2.385,17.999 C 1.215,17.641 1.015,17.009 1.001,16.664 0.981,16.191 1.254,15.507 2.668,14.941 L 28.363,5.033 c 0.697,-0.318 1.445,-0.25 1.974,0.191 0.613,0.511 0.813,1.413 0.549,2.474 l -4.371,20.598 c -0.184,0.878 -0.566,1.457 -1.137,1.719 -0.215,0.099 -0.445,0.148 -0.691,0.148 z"
         fill="#263238"
         id="path879"
         style="fill:#000000" />
      <g
         id="g893"
         style="fill:#000000">
        <g
           id="g891"
           style="fill:#000000">
          <g
             id="g889"
             style="fill:#000000">
            <g
               id="g887"
               style="fill:#000000">
              <g
                 id="g885"
                 style="fill:#000000">
                <g
                   id="g883"
                   style="fill:#000000">
                  <path
                     d="m 18.5,14 c 0,0.275 -0.225,0.5 -0.5,0.5 v 0 c -0.275,0 -0.5,-0.225 -0.5,-0.5 v 0 c 0,-0.275 0.225,-0.5 0.5,-0.5 v 0 c 0.275,0 0.5,0.225 0.5,0.5 z"
                     fill="#263238"
                     id="path881"
                     style="fill:#000000" />
                </g>
              </g>
            </g>
          </g>
        </g>
      </g>
    </g>
    <g
       id="Gray_Logo"
       transform="matrix(0.20352047,0,0,0.20352047,347.60812,41.372478)">
</g>
    <g
       id="Black_Letters"
       transform="matrix(0.20352047,0,0,0.20352047,347.60812,41.372478)">
</g>
    <g
       id="g1058"
       transform="matrix(0.78011129,0,0,0.78011129,-189.16985,-3.9863142)">
      <circle
         transform="rotate(-45)"
         class="st0"
         cx="217.36841"
         cy="365.94601"
         id="ellipse947"
         r="63.050034"
         style="fill:none;stroke:#000000;stroke-width:2.1;stroke-miterlimit:4;stroke-dasharray:none" />
      <g
         id="g965"
         transform="matrix(0.20352047,0,0,0.20352047,347.60812,41.372478)"
         style="fill:#000000;stroke-width:0;stroke-miterlimit:4;stroke-dasharray:none">
			<path
   class="st2"
   d="m 424.7,411.8 h 33.6 v 26.1 H 407 L 322,310.5 H 276.7 V 411.8 H 321 v 26.1 H 209.5 v -26.1 h 38.3 V 187.3 l -38.3,-4.7 v -24.7 c 14.5,3.3 27.1,5.6 42.9,5.6 23.8,0 48.1,-5.6 71.9,-5.6 46.2,0 89.1,21 89.1,72.3 0,39.7 -23.8,64.9 -60.7,75.6 z m -148,-126.5 24.3,0.5 c 59.3,0.9 82.1,-21.9 82.1,-52.3 0,-35.5 -25.7,-49.5 -58.3,-49.5 -15.4,0 -31.3,1.4 -48.1,3.3 z"
   id="path963"
   style="fill:#000000;stroke-width:0;stroke-miterlimit:4;stroke-dasharray:none" />

		</g>
    </g>
    <g
       id="White_Letters"
       transform="matrix(0.20352047,0,0,0.20352047,347.60812,41.372478)">
</g>
    <g
       id="R_Ball"
       transform="matrix(0.20352047,0,0,0.20352047,347.60812,41.372478)">
</g>
    <g
       id="g1186"
       transform="translate(-269.55251,35.440532)"
       style="stroke-width:0;stroke-miterlimit:10;stroke-dasharray:none">
      <g
         id="g1078"
         style="fill:#000000;stroke-width:0;stroke-miterlimit:10;stroke-dasharray:none"
         transform="translate(274.72971,50.848811)" />
      <g
         id="g1106"
         style="fill:#000000;stroke-width:0;stroke-miterlimit:10;stroke-dasharray:none"
         transform="rotate(-45,246.99733,-248.44755)">
        <path
           id="path1104"
           style="fill:#000000;stroke-width:0;stroke-miterlimit:10;stroke-dasharray:none"
           d="m 32.500977,58.552734 c -0.354493,0 -0.708008,-0.09424 -1.022461,-0.28125 -0.601563,-0.35791 -0.972168,-1.003906 -0.977539,-1.704101 L 30.415527,44.99585 C 30.407227,43.891357 31.296387,43 32.400879,43 c 0.0049,0 0.0098,0 0.01514,0 1.097656,0 1.99121,0.866943 1.999511,1.966553 l 0.06104,8.275268 7.310547,-3.903137 c 0.973633,-0.519531 2.185547,-0.154205 2.705567,0.821381 0.520019,0.974609 0.150879,2.18486 -0.823731,2.704391 L 33.441894,58.31797 c -0.294433,0.157227 -0.617675,0.234764 -0.940917,0.234764 z m 2.466308,-3.17041 c -0.221191,0 -0.446289,-0.03711 -0.666992,-0.114746 -1.041504,-0.368652 -1.586914,-1.51123 -1.21875,-2.552734 C 37.729004,39.577148 50.219238,30.75 64.161621,30.75 c 7.371582,0 14.342774,2.379883 20.158691,6.881836 0.541993,0.419433 1.070313,0.855469 1.584473,1.307129 0.82959,0.729004 0.911133,1.992676 0.182129,2.822754 C 85.35791,42.59082 84.094727,42.672851 83.26416,41.943848 82.8125,41.546875 82.347656,41.163574 81.871582,40.794434 76.763184,36.840332 70.63916,34.75 64.161621,34.75 c -12.250976,0 -23.225586,7.755371 -27.308594,19.298828 -0.290527,0.820801 -1.062011,1.333496 -1.885742,1.333496 z" />
      </g>
    </g>
    <g
       id="g1197"
       transform="rotate(-120,276.21529,236.6409)"
       style="stroke-width:0;stroke-miterlimit:10;stroke-dasharray:none">
      <g
         id="g1191"
         style="fill:#000000;stroke-width:0;stroke-miterlimit:10;stroke-dasharray:none"
         transform="translate(274.72971,50.848811)" />
      <g
         id="g1195"
         style="fill:#000000;stroke-width:0;stroke-miterlimit:10;stroke-dasharray:none"
         transform="rotate(-45,246.99733,-248.44755)">
        <path
           id="path1193"
           style="fill:#000000;stroke-width:0;stroke-miterlimit:10;stroke-dasharray:none"
           d="m 32.500977,58.552734 c -0.354493,0 -0.708008,-0.09424 -1.022461,-0.28125 -0.601563,-0.35791 -0.972168,-1.003906 -0.977539,-1.704101 L 30.415527,44.99585 C 30.407227,43.891357 31.296387,43 32.400879,43 c 0.0049,0 0.0098,0 0.01514,0 1.097656,0 1.99121,0.866943 1.999511,1.966553 l 0.06104,8.275268 7.310547,-3.903137 c 0.973633,-0.519531 2.185547,-0.154205 2.705567,0.821381 0.520019,0.974609 0.150879,2.18486 -0.823731,2.704391 L 33.441894,58.31797 c -0.294433,0.157227 -0.617675,0.234764 -0.940917,0.234764 z m 2.466308,-3.17041 c -0.221191,0 -0.446289,-0.03711 -0.666992,-0.114746 -1.041504,-0.368652 -1.586914,-1.51123 -1.21875,-2.552734 C 37.729004,39.577148 50.219238,30.75 64.161621,30.75 c 7.371582,0 14.342774,2.379883 20.158691,6.881836 0.541993,0.419433 1.070313,0.855469 1.584473,1.307129 0.82959,0.729004 0.911133,1.992676 0.182129,2.822754 C 85.35791,42.59082 84.094727,42.672851 83.26416,41.943848 82.8125,41.546875 82.347656,41.163574 81.871582,40.794434 76.763184,36.840332 70.63916,34.75 64.161621,34.75 c -12.250976,0 -23.225586,7.755371 -27.308594,19.298828 -0.290527,0.820801 -1.062011,1.333496 -1.885742,1.333496 z" />
      </g>
    </g>
    <text
       xml:space="preserve"
       style="font-style:normal;font-weight:normal;font-size:26.6667px;line-height:1.25;font-family:sans-serif;fill:#000000;fill-opacity:1;stroke:none"
       x="187.46988"
       y="136.79527"
       id="text1201"><tspan
         sodipodi:role="line"
         id="tspan1199"
         x="187.46988"
         y="136.79527"
         style="font-style:normal;font-variant:normal;font-weight:normal;font-stretch:normal;font-size:26.6667px;font-family:Ubuntu;-inkscape-font-specification:Ubuntu">tgme</tspan></text>
  </g>
</svg>
